solid esp32speakerbox
facet normal -5.541234138206628e-13 -1.0 -1.5904421925387133e-31
  outer loop
    vertex 90.66339006125379 130.08724738792006 6.00000000000001
    vertex 94.66339006125378 130.0872473879179 1.0000000000000115
    vertex 94.66339006125378 130.0872473879179 6.00000000000001
  endloop
endfacet
facet normal -5.541234138206628e-13 -1.0 -1.5904421925387133e-31
  outer loop
    vertex 94.66339006125378 130.0872473879179 1.0000000000000115
    vertex 90.66339006125379 130.08724738792006 6.00000000000001
    vertex 90.66339006125379 130.08724738792006 1.0000000000000115
  endloop
endfacet
facet normal 0.0 0.0 1.0
  outer loop
    vertex 90.66339006125432 131.08724738792006 1.0000000000000115
    vertex 46.663390061253736 130.08724738794436 1.0000000000000115
    vertex 90.66339006125379 130.08724738792006 1.0000000000000115
  endloop
endfacet
facet normal 0.0 0.0 1.0
  outer loop
    vertex 46.663390061253736 130.08724738794436 1.0000000000000115
    vertex 90.66339006125432 131.08724738792006 1.0000000000000115
    vertex 46.66339006125426 131.08724738794433 1.0000000000000115
  endloop
endfacet
facet normal 1.0 -5.48953475269325e-13 1.081500690926325e-29
  outer loop
    vertex 94.66339006125546 133.0872473879179 6.00000000000001
    vertex 94.66339006125378 130.0872473879179 1.0000000000000115
    vertex 94.66339006125546 133.0872473879179 1.0000000000000115
  endloop
endfacet
facet normal 1.0 -5.48953475269325e-13 1.081500690926325e-29
  outer loop
    vertex 94.66339006125378 130.0872473879179 1.0000000000000115
    vertex 94.66339006125546 133.0872473879179 6.00000000000001
    vertex 94.66339006125378 130.0872473879179 6.00000000000001
  endloop
endfacet
facet normal 0.0 0.0 1.0
  outer loop
    vertex 90.66339006126974 159.08724738792003 1.0000000000000115
    vertex 46.66339006126911 158.0872473879443 1.0000000000000115
    vertex 90.66339006126921 158.08724738792003 1.0000000000000115
  endloop
endfacet
facet normal 0.0 0.0 1.0
  outer loop
    vertex 46.66339006126911 158.0872473879443 1.0000000000000115
    vertex 90.66339006126974 159.08724738792003 1.0000000000000115
    vertex 46.66339006126969 159.0872473879443 1.0000000000000115
  endloop
endfacet
facet normal -1.0 5.338440252270314e-13 2.495032073036229e-16
  outer loop
    vertex 90.66339006125379 130.08724738792006 6.00000000000001
    vertex 90.66339006125432 131.08724738792006 1.0000000000000115
    vertex 90.66339006125379 130.08724738792006 1.0000000000000115
  endloop
endfacet
facet normal -1.0 5.338440252270314e-13 2.495032073036229e-16
  outer loop
    vertex 90.66339006125432 131.08724738792006 1.0000000000000115
    vertex 90.66339006125379 130.08724738792006 6.00000000000001
    vertex 90.66339006125459 131.58724738792006 1.0000000000000115
  endloop
endfacet
facet normal -1.0 5.338440252270314e-13 2.495032073036229e-16
  outer loop
    vertex 90.66339006125459 131.58724738792006 1.0000000000000115
    vertex 90.66339006125379 130.08724738792006 6.00000000000001
    vertex 90.66339006125459 131.58724738792006 3.0000000000000133
  endloop
endfacet
facet normal -1.0 5.338440252270314e-13 2.495032073036229e-16
  outer loop
    vertex 90.66339006125459 131.58724738792006 3.0000000000000133
    vertex 90.66339006125379 130.08724738792006 6.00000000000001
    vertex 90.66339006125459 131.58724738792006 6.00000000000001
  endloop
endfacet
facet normal 5.527134305793889e-13 1.0 -1.3272062356921048e-30
  outer loop
    vertex 92.66339006125546 133.08724738791895 1.0000000000000115
    vertex 94.66339006125546 133.0872473879179 6.00000000000001
    vertex 94.66339006125546 133.0872473879179 1.0000000000000115
  endloop
endfacet
facet normal 5.527134305793889e-13 1.0 -1.3272062356921048e-30
  outer loop
    vertex 94.66339006125546 133.0872473879179 6.00000000000001
    vertex 92.66339006125546 133.08724738791895 1.0000000000000115
    vertex 92.66339006125546 133.08724738791895 6.00000000000001
  endloop
endfacet
facet normal 5.527134305793889e-13 1.0 -1.3272062356921048e-30
  outer loop
    vertex 92.66339006125546 133.08724738791895 6.00000000000001
    vertex 92.66339006125546 133.08724738791895 1.0000000000000115
    vertex 92.66339006125546 133.08724738791895 3.0000000000000133
  endloop
endfacet
facet normal 0.0 0.0 1.0
  outer loop
    vertex 41.663390061255356 133.08724738794706 1.0000000000000115
    vertex 40.663390061268004 156.0872473879475 1.0000000000000115
    vertex 40.663390061255356 133.08724738794757 1.0000000000000115
  endloop
endfacet
facet normal 0.0 0.0 1.0
  outer loop
    vertex 40.663390061268004 156.0872473879475 1.0000000000000115
    vertex 41.663390061255356 133.08724738794706 1.0000000000000115
    vertex 41.663390061268004 156.08724738794703 1.0000000000000115
  endloop
endfacet
facet normal 0.0 0.0 1.0
  outer loop
    vertex 94.66339006126809 156.08724738791787 6.000000000000019
    vertex 92.6633900612689 157.58724738791895 6.000000000000019
    vertex 92.66339006126809 156.08724738791892 6.000000000000019
  endloop
endfacet
facet normal 0.0 0.0 1.0
  outer loop
    vertex 92.6633900612689 157.58724738791895 6.000000000000019
    vertex 94.66339006126809 156.08724738791787 6.000000000000019
    vertex 94.66339006126974 159.08724738791784 6.000000000000019
  endloop
endfacet
facet normal 0.0 0.0 1.0
  outer loop
    vertex 92.6633900612689 157.58724738791895 6.000000000000019
    vertex 94.66339006126974 159.08724738791784 6.000000000000019
    vertex 90.66339006126974 159.08724738792003 6.000000000000019
  endloop
endfacet
facet normal 0.0 0.0 1.0
  outer loop
    vertex 90.66339006126974 159.08724738792003 6.000000000000019
    vertex 90.6633900612689 157.58724738792003 6.000000000000019
    vertex 92.6633900612689 157.58724738791895 6.000000000000019
  endloop
endfacet
facet normal 5.537709180103444e-13 1.0 3.9761054813467685e-32
  outer loop
    vertex 90.66339006126974 159.08724738792003 1.0000000000000115
    vertex 94.66339006126974 159.08724738791784 6.000000000000019
    vertex 94.66339006126974 159.08724738791784 1.0000000000000115
  endloop
endfacet
facet normal 5.537709180103444e-13 1.0 3.9761054813467685e-32
  outer loop
    vertex 94.66339006126974 159.08724738791784 6.000000000000019
    vertex 90.66339006126974 159.08724738792003 1.0000000000000115
    vertex 90.66339006126974 159.08724738792003 6.000000000000019
  endloop
endfacet
facet normal 0.0 0.0 1.0
  outer loop
    vertex 46.66339006125454 131.58724738794433 6.000000000000007
    vertex 41.663390061254546 131.58724738794706 6.000000000000007
    vertex 46.663390061253736 130.08724738794436 6.000000000000007
  endloop
endfacet
facet normal 0.0 0.0 1.0
  outer loop
    vertex 40.66339006125374 130.08724738794757 6.000000000000007
    vertex 41.663390061254546 131.58724738794706 6.000000000000007
    vertex 40.663390061255356 133.08724738794757 6.000000000000007
  endloop
endfacet
facet normal 0.0 0.0 1.0
  outer loop
    vertex 41.663390061254546 131.58724738794706 6.000000000000007
    vertex 40.66339006125374 130.08724738794757 6.000000000000007
    vertex 46.663390061253736 130.08724738794436 6.000000000000007
  endloop
endfacet
facet normal 0.0 0.0 1.0
  outer loop
    vertex 40.663390061255356 133.08724738794757 6.000000000000007
    vertex 41.663390061254546 131.58724738794706 6.000000000000007
    vertex 41.663390061255356 133.08724738794706 6.000000000000007
  endloop
endfacet
facet normal -5.545934082344208e-13 -1.0 1.0337874251501646e-29
  outer loop
    vertex 40.66339006125374 130.08724738794757 6.000000000000007
    vertex 46.663390061253736 130.08724738794436 1.0000000000000115
    vertex 46.663390061253736 130.08724738794436 6.000000000000007
  endloop
endfacet
facet normal -5.545934082344208e-13 -1.0 1.0337874251501646e-29
  outer loop
    vertex 46.663390061253736 130.08724738794436 1.0000000000000115
    vertex 40.66339006125374 130.08724738794757 6.000000000000007
    vertex 40.66339006125374 130.08724738794757 1.0000000000000115
  endloop
endfacet
facet normal -1.0 5.414335646491973e-13 0.0
  outer loop
    vertex 40.66339006125374 130.08724738794757 6.000000000000007
    vertex 40.663390061255356 133.08724738794757 1.0000000000000115
    vertex 40.66339006125374 130.08724738794757 1.0000000000000115
  endloop
endfacet
facet normal -1.0 5.414335646491973e-13 0.0
  outer loop
    vertex 40.663390061255356 133.08724738794757 1.0000000000000115
    vertex 40.66339006125374 130.08724738794757 6.000000000000007
    vertex 40.663390061255356 133.08724738794757 6.000000000000007
  endloop
endfacet
facet normal 1.0 -5.414335646491974e-13 0.0
  outer loop
    vertex 41.663390061255356 133.08724738794706 6.000000000000007
    vertex 41.663390061254546 131.58724738794706 1.0000000000000115
    vertex 41.663390061255356 133.08724738794706 1.0000000000000115
  endloop
endfacet
facet normal 1.0 -5.414335646491974e-13 0.0
  outer loop
    vertex 41.663390061254546 131.58724738794706 1.0000000000000115
    vertex 41.663390061255356 133.08724738794706 6.000000000000007
    vertex 41.663390061254546 131.58724738794706 6.000000000000007
  endloop
endfacet
facet normal 1.0 -5.489534752693261e-13 -9.542653155232245e-30
  outer loop
    vertex 94.66339006126974 159.08724738791784 6.000000000000019
    vertex 94.66339006126809 156.08724738791787 1.0000000000000115
    vertex 94.66339006126974 159.08724738791784 1.0000000000000115
  endloop
endfacet
facet normal 1.0 -5.489534752693261e-13 -9.542653155232245e-30
  outer loop
    vertex 94.66339006126809 156.08724738791787 1.0000000000000115
    vertex 94.66339006126974 159.08724738791784 6.000000000000019
    vertex 94.66339006126809 156.08724738791787 6.000000000000019
  endloop
endfacet
facet normal -1.0 5.564733858894613e-13 4.873672055877651e-31
  outer loop
    vertex 92.66339006125459 131.58724738791895 6.00000000000001
    vertex 92.66339006125546 133.08724738791895 3.0000000000000133
    vertex 92.66339006125459 131.58724738791895 3.0000000000000133
  endloop
endfacet
facet normal -1.0 5.564733858894613e-13 4.873672055877651e-31
  outer loop
    vertex 92.66339006125546 133.08724738791895 3.0000000000000133
    vertex 92.66339006125459 131.58724738791895 6.00000000000001
    vertex 92.66339006125546 133.08724738791895 6.00000000000001
  endloop
endfacet
facet normal -1.0 5.566126434935294e-13 4.990064146072423e-16
  outer loop
    vertex 90.6633900612689 157.58724738792003 3.0000000000000115
    vertex 90.66339006126921 158.08724738792003 1.0000000000000115
    vertex 90.6633900612689 157.58724738792003 1.0000000000000115
  endloop
endfacet
facet normal -1.0 5.566126434935294e-13 4.990064146072423e-16
  outer loop
    vertex 90.66339006126921 158.08724738792003 1.0000000000000115
    vertex 90.6633900612689 157.58724738792003 3.0000000000000115
    vertex 90.66339006126974 159.08724738792003 1.0000000000000115
  endloop
endfacet
facet normal -1.0 5.566126434935294e-13 4.990064146072423e-16
  outer loop
    vertex 90.66339006126974 159.08724738792003 1.0000000000000115
    vertex 90.6633900612689 157.58724738792003 3.0000000000000115
    vertex 90.66339006126974 159.08724738792003 6.000000000000019
  endloop
endfacet
facet normal -1.0 5.566126434935294e-13 4.990064146072423e-16
  outer loop
    vertex 90.66339006126974 159.08724738792003 6.000000000000019
    vertex 90.6633900612689 157.58724738792003 3.0000000000000115
    vertex 90.6633900612689 157.58724738792003 6.000000000000019
  endloop
endfacet
facet normal 0.0 0.0 1.0
  outer loop
    vertex 41.663390061268004 156.08724738794703 6.000000000000007
    vertex 40.66339006126967 159.0872473879475 6.000000000000007
    vertex 40.663390061268004 156.0872473879475 6.000000000000007
  endloop
endfacet
facet normal 0.0 0.0 1.0
  outer loop
    vertex 40.66339006126967 159.0872473879475 6.000000000000007
    vertex 41.663390061268004 156.08724738794703 6.000000000000007
    vertex 41.66339006126885 157.58724738794703 6.000000000000007
  endloop
endfacet
facet normal 0.0 0.0 1.0
  outer loop
    vertex 40.66339006126967 159.0872473879475 6.000000000000007
    vertex 41.66339006126885 157.58724738794703 6.000000000000007
    vertex 46.66339006126884 157.5872473879443 6.000000000000007
  endloop
endfacet
facet normal 0.0 0.0 1.0
  outer loop
    vertex 40.66339006126967 159.0872473879475 6.000000000000007
    vertex 46.66339006126884 157.5872473879443 6.000000000000007
    vertex 46.66339006126969 159.0872473879443 6.000000000000007
  endloop
endfacet
facet normal 1.0 -5.414335646491974e-13 0.0
  outer loop
    vertex 46.66339006125454 131.58724738794433 6.000000000000007
    vertex 46.66339006125426 131.08724738794433 1.0000000000000115
    vertex 46.66339006125454 131.58724738794433 1.0000000000000115
  endloop
endfacet
facet normal 1.0 -5.414335646491974e-13 0.0
  outer loop
    vertex 46.66339006125426 131.08724738794433 1.0000000000000115
    vertex 46.66339006125454 131.58724738794433 6.000000000000007
    vertex 46.663390061253736 130.08724738794436 1.0000000000000115
  endloop
endfacet
facet normal 1.0 -5.414335646491974e-13 0.0
  outer loop
    vertex 46.663390061253736 130.08724738794436 1.0000000000000115
    vertex 46.66339006125454 131.58724738794433 6.000000000000007
    vertex 46.663390061253736 130.08724738794436 6.000000000000007
  endloop
endfacet
facet normal 1.0 -5.63993296509582e-13 0.0
  outer loop
    vertex 41.66339006126885 157.58724738794703 6.000000000000007
    vertex 41.663390061268004 156.08724738794703 1.0000000000000115
    vertex 41.66339006126885 157.58724738794703 1.0000000000000115
  endloop
endfacet
facet normal 1.0 -5.63993296509582e-13 0.0
  outer loop
    vertex 41.663390061268004 156.08724738794703 1.0000000000000115
    vertex 41.66339006126885 157.58724738794703 6.000000000000007
    vertex 41.663390061268004 156.08724738794703 6.000000000000007
  endloop
endfacet
facet normal -5.52713430579389e-13 -1.0 1.72536810639973e-29
  outer loop
    vertex 92.66339006126809 156.08724738791892 6.000000000000019
    vertex 94.66339006126809 156.08724738791787 1.0000000000000115
    vertex 94.66339006126809 156.08724738791787 6.000000000000019
  endloop
endfacet
facet normal -5.52713430579389e-13 -1.0 1.72536810639973e-29
  outer loop
    vertex 94.66339006126809 156.08724738791787 1.0000000000000115
    vertex 92.66339006126809 156.08724738791892 6.000000000000019
    vertex 92.66339006126809 156.08724738791892 1.0000000000000115
  endloop
endfacet
facet normal -5.52713430579389e-13 -1.0 1.72536810639973e-29
  outer loop
    vertex 92.66339006126809 156.08724738791892 1.0000000000000115
    vertex 92.66339006126809 156.08724738791892 6.000000000000019
    vertex 92.66339006126809 156.08724738791892 3.0000000000000115
  endloop
endfacet
facet normal -1.0 5.564733858894513e-13 0.0
  outer loop
    vertex 40.663390061268004 156.0872473879475 6.000000000000007
    vertex 40.66339006126967 159.0872473879475 1.0000000000000115
    vertex 40.663390061268004 156.0872473879475 1.0000000000000115
  endloop
endfacet
facet normal -1.0 5.564733858894513e-13 0.0
  outer loop
    vertex 40.66339006126967 159.0872473879475 1.0000000000000115
    vertex 40.663390061268004 156.0872473879475 6.000000000000007
    vertex 40.66339006126967 159.0872473879475 6.000000000000007
  endloop
endfacet
facet normal 0.0 0.0 1.0
  outer loop
    vertex 94.66339006125546 133.0872473879179 1.0000000000000115
    vertex 92.66339006126809 156.08724738791892 1.0000000000000115
    vertex 92.66339006125546 133.08724738791895 1.0000000000000115
  endloop
endfacet
facet normal 0.0 0.0 1.0
  outer loop
    vertex 92.66339006126809 156.08724738791892 1.0000000000000115
    vertex 94.66339006125546 133.0872473879179 1.0000000000000115
    vertex 94.66339006126809 156.08724738791787 1.0000000000000115
  endloop
endfacet
facet normal 0.0 0.0 1.0
  outer loop
    vertex 94.66339006125546 133.0872473879179 6.00000000000001
    vertex 92.66339006125459 131.58724738791895 6.00000000000001
    vertex 94.66339006125378 130.0872473879179 6.00000000000001
  endloop
endfacet
facet normal 0.0 0.0 1.0
  outer loop
    vertex 92.66339006125459 131.58724738791895 6.00000000000001
    vertex 94.66339006125546 133.0872473879179 6.00000000000001
    vertex 92.66339006125546 133.08724738791895 6.00000000000001
  endloop
endfacet
facet normal 0.0 0.0 1.0
  outer loop
    vertex 94.66339006125378 130.0872473879179 6.00000000000001
    vertex 90.66339006125459 131.58724738792006 6.00000000000001
    vertex 90.66339006125379 130.08724738792006 6.00000000000001
  endloop
endfacet
facet normal 0.0 0.0 1.0
  outer loop
    vertex 90.66339006125459 131.58724738792006 6.00000000000001
    vertex 94.66339006125378 130.0872473879179 6.00000000000001
    vertex 92.66339006125459 131.58724738791895 6.00000000000001
  endloop
endfacet
facet normal -5.49893464096841e-13 -1.0 0.0
  outer loop
    vertex 40.663390061268004 156.0872473879475 6.000000000000007
    vertex 41.663390061268004 156.08724738794703 1.0000000000000115
    vertex 41.663390061268004 156.08724738794703 6.000000000000007
  endloop
endfacet
facet normal -5.49893464096841e-13 -1.0 0.0
  outer loop
    vertex 41.663390061268004 156.08724738794703 1.0000000000000115
    vertex 40.663390061268004 156.0872473879475 6.000000000000007
    vertex 40.663390061268004 156.0872473879475 1.0000000000000115
  endloop
endfacet
facet normal 1.0 -5.414335646491974e-13 0.0
  outer loop
    vertex 46.66339006126969 159.0872473879443 6.000000000000007
    vertex 46.66339006126911 158.0872473879443 1.0000000000000115
    vertex 46.66339006126969 159.0872473879443 1.0000000000000115
  endloop
endfacet
facet normal 1.0 -5.414335646491974e-13 0.0
  outer loop
    vertex 46.66339006126911 158.0872473879443 1.0000000000000115
    vertex 46.66339006126969 159.0872473879443 6.000000000000007
    vertex 46.66339006126884 157.5872473879443 1.0000000000000115
  endloop
endfacet
facet normal 1.0 -5.414335646491974e-13 0.0
  outer loop
    vertex 46.66339006126884 157.5872473879443 1.0000000000000115
    vertex 46.66339006126969 159.0872473879443 6.000000000000007
    vertex 46.66339006126884 157.5872473879443 6.000000000000007
  endloop
endfacet
facet normal 5.545934082344208e-13 1.0 0.0
  outer loop
    vertex 40.66339006126967 159.0872473879475 1.0000000000000115
    vertex 46.66339006126969 159.0872473879443 6.000000000000007
    vertex 46.66339006126969 159.0872473879443 1.0000000000000115
  endloop
endfacet
facet normal 5.545934082344208e-13 1.0 0.0
  outer loop
    vertex 46.66339006126969 159.0872473879443 6.000000000000007
    vertex 40.66339006126967 159.0872473879475 1.0000000000000115
    vertex 40.66339006126967 159.0872473879475 6.000000000000007
  endloop
endfacet
facet normal 5.639932965095806e-13 1.0 0.0
  outer loop
    vertex 40.663390061255356 133.08724738794757 1.0000000000000115
    vertex 41.663390061255356 133.08724738794706 6.000000000000007
    vertex 41.663390061255356 133.08724738794706 1.0000000000000115
  endloop
endfacet
facet normal 5.639932965095806e-13 1.0 0.0
  outer loop
    vertex 41.663390061255356 133.08724738794706 6.000000000000007
    vertex 40.663390061255356 133.08724738794757 1.0000000000000115
    vertex 40.663390061255356 133.08724738794757 6.000000000000007
  endloop
endfacet
facet normal -1.0 5.414335646491973e-13 -1.0162611707268192e-30
  outer loop
    vertex 92.66339006126809 156.08724738791892 6.000000000000019
    vertex 92.6633900612689 157.58724738791895 3.0000000000000115
    vertex 92.66339006126809 156.08724738791892 3.0000000000000115
  endloop
endfacet
facet normal -1.0 5.414335646491973e-13 -1.0162611707268192e-30
  outer loop
    vertex 92.6633900612689 157.58724738791895 3.0000000000000115
    vertex 92.66339006126809 156.08724738791892 6.000000000000019
    vertex 92.6633900612689 157.58724738791895 6.000000000000019
  endloop
endfacet
facet normal 0.0 0.0 1.0
  outer loop
    vertex 92.66339006126809 156.08724738791892 1.0000000000000115
    vertex 90.66339006125546 133.08724738792006 1.0000000000000115
    vertex 92.66339006125546 133.08724738791895 1.0000000000000115
  endloop
endfacet
facet normal 0.0 0.0 1.0
  outer loop
    vertex 90.66339006125546 133.08724738792006 1.0000000000000115
    vertex 92.66339006126809 156.08724738791892 1.0000000000000115
    vertex 90.66339006126809 156.08724738792003 1.0000000000000115
  endloop
endfacet
facet normal -5.52713430579389e-13 -1.0 1.0402208030568619e-29
  outer loop
    vertex 90.6633900612689 157.58724738792003 6.000000000000019
    vertex 92.6633900612689 157.58724738791895 3.0000000000000115
    vertex 92.6633900612689 157.58724738791895 6.000000000000019
  endloop
endfacet
facet normal -5.52713430579389e-13 -1.0 1.0402208030568619e-29
  outer loop
    vertex 92.6633900612689 157.58724738791895 3.0000000000000115
    vertex 90.6633900612689 157.58724738792003 6.000000000000019
    vertex 90.6633900612689 157.58724738792003 3.0000000000000115
  endloop
endfacet
facet normal 5.52713430579389e-13 1.0 8.882475773090738e-31
  outer loop
    vertex 90.66339006125459 131.58724738792006 3.0000000000000133
    vertex 92.66339006125459 131.58724738791895 6.00000000000001
    vertex 92.66339006125459 131.58724738791895 3.0000000000000133
  endloop
endfacet
facet normal 5.52713430579389e-13 1.0 8.882475773090738e-31
  outer loop
    vertex 92.66339006125459 131.58724738791895 6.00000000000001
    vertex 90.66339006125459 131.58724738792006 3.0000000000000133
    vertex 90.66339006125459 131.58724738792006 6.00000000000001
  endloop
endfacet
facet normal -5.49893464096841e-13 -1.0 0.0
  outer loop
    vertex 41.66339006126885 157.58724738794703 6.000000000000007
    vertex 46.66339006126884 157.5872473879443 1.0000000000000115
    vertex 46.66339006126884 157.5872473879443 6.000000000000007
  endloop
endfacet
facet normal -5.49893464096841e-13 -1.0 0.0
  outer loop
    vertex 46.66339006126884 157.5872473879443 1.0000000000000115
    vertex 41.66339006126885 157.58724738794703 6.000000000000007
    vertex 41.66339006126885 157.58724738794703 1.0000000000000115
  endloop
endfacet
facet normal 5.49893464096841e-13 1.0 -1.0337874251501647e-29
  outer loop
    vertex 41.663390061254546 131.58724738794706 1.0000000000000115
    vertex 46.66339006125454 131.58724738794433 6.000000000000007
    vertex 46.66339006125454 131.58724738794433 1.0000000000000115
  endloop
endfacet
facet normal 5.49893464096841e-13 1.0 -1.0337874251501647e-29
  outer loop
    vertex 46.66339006125454 131.58724738794433 6.000000000000007
    vertex 41.663390061254546 131.58724738794706 1.0000000000000115
    vertex 41.663390061254546 131.58724738794706 6.000000000000007
  endloop
endfacet
facet normal 0.0 0.0 1.0
  outer loop
    vertex 94.66339006126809 156.08724738791787 1.0000000000000115
    vertex 92.6633900612689 157.58724738791895 1.0000000000000115
    vertex 92.66339006126809 156.08724738791892 1.0000000000000115
  endloop
endfacet
facet normal 0.0 0.0 1.0
  outer loop
    vertex 92.6633900612689 157.58724738791895 1.0000000000000115
    vertex 94.66339006126809 156.08724738791787 1.0000000000000115
    vertex 94.66339006126974 159.08724738791784 1.0000000000000115
  endloop
endfacet
facet normal 0.0 0.0 1.0
  outer loop
    vertex 92.6633900612689 157.58724738791895 1.0000000000000115
    vertex 94.66339006126974 159.08724738791784 1.0000000000000115
    vertex 90.66339006126921 158.08724738792003 1.0000000000000115
  endloop
endfacet
facet normal 0.0 0.0 1.0
  outer loop
    vertex 90.66339006126921 158.08724738792003 1.0000000000000115
    vertex 94.66339006126974 159.08724738791784 1.0000000000000115
    vertex 90.66339006126974 159.08724738792003 1.0000000000000115
  endloop
endfacet
facet normal 0.0 0.0 1.0
  outer loop
    vertex 90.66339006126921 158.08724738792003 1.0000000000000115
    vertex 90.6633900612689 157.58724738792003 1.0000000000000115
    vertex 92.6633900612689 157.58724738791895 1.0000000000000115
  endloop
endfacet
facet normal 0.0 0.0 1.0
  outer loop
    vertex 90.66339006125459 131.58724738792006 1.0000000000000115
    vertex 46.66339006125426 131.08724738794433 1.0000000000000115
    vertex 90.66339006125432 131.08724738792006 1.0000000000000115
  endloop
endfacet
facet normal 0.0 0.0 1.0
  outer loop
    vertex 46.66339006125426 131.08724738794433 1.0000000000000115
    vertex 90.66339006125459 131.58724738792006 1.0000000000000115
    vertex 46.66339006125454 131.58724738794433 1.0000000000000115
  endloop
endfacet
facet normal 0.0 0.0 1.0
  outer loop
    vertex 46.66339006125454 131.58724738794433 1.0000000000000115
    vertex 90.66339006125459 131.58724738792006 1.0000000000000115
    vertex 90.66339006125546 133.08724738792006 1.0000000000000115
  endloop
endfacet
facet normal 0.0 0.0 1.0
  outer loop
    vertex 90.6633900612689 157.58724738792003 1.0000000000000115
    vertex 43.663390061268046 156.08724738794592 1.0000000000000115
    vertex 90.66339006126809 156.08724738792003 1.0000000000000115
  endloop
endfacet
facet normal 0.0 0.0 1.0
  outer loop
    vertex 43.663390061268046 156.08724738794592 1.0000000000000115
    vertex 90.6633900612689 157.58724738792003 1.0000000000000115
    vertex 41.663390061268004 156.08724738794703 1.0000000000000115
  endloop
endfacet
facet normal 0.0 0.0 1.0
  outer loop
    vertex 41.663390061268004 156.08724738794703 1.0000000000000115
    vertex 90.6633900612689 157.58724738792003 1.0000000000000115
    vertex 41.66339006126885 157.58724738794703 1.0000000000000115
  endloop
endfacet
facet normal 0.0 0.0 1.0
  outer loop
    vertex 41.66339006126885 157.58724738794703 1.0000000000000115
    vertex 90.6633900612689 157.58724738792003 1.0000000000000115
    vertex 46.66339006126884 157.5872473879443 1.0000000000000115
  endloop
endfacet
facet normal 0.0 0.0 1.0
  outer loop
    vertex 46.66339006126884 157.5872473879443 1.0000000000000115
    vertex 90.6633900612689 157.58724738792003 1.0000000000000115
    vertex 90.66339006126921 158.08724738792003 1.0000000000000115
  endloop
endfacet
facet normal 0.0 0.0 1.0
  outer loop
    vertex 46.66339006126884 157.5872473879443 1.0000000000000115
    vertex 90.66339006126921 158.08724738792003 1.0000000000000115
    vertex 46.66339006126911 158.0872473879443 1.0000000000000115
  endloop
endfacet
facet normal 0.0 0.0 1.0
  outer loop
    vertex 46.66339006125454 131.58724738794433 1.0000000000000115
    vertex 41.663390061255356 133.08724738794706 1.0000000000000115
    vertex 41.663390061254546 131.58724738794706 1.0000000000000115
  endloop
endfacet
facet normal 0.0 0.0 1.0
  outer loop
    vertex 41.663390061255356 133.08724738794706 1.0000000000000115
    vertex 46.66339006125454 131.58724738794433 1.0000000000000115
    vertex 90.66339006125546 133.08724738792006 1.0000000000000115
  endloop
endfacet
facet normal 0.0 0.0 1.0
  outer loop
    vertex 41.663390061255356 133.08724738794706 1.0000000000000115
    vertex 90.66339006125546 133.08724738792006 1.0000000000000115
    vertex 43.66339006125535 133.08724738794595 1.0000000000000115
  endloop
endfacet
facet normal 0.0 0.0 1.0
  outer loop
    vertex 41.663390061255356 133.08724738794706 1.0000000000000115
    vertex 43.66339006125535 133.08724738794595 1.0000000000000115
    vertex 43.663390061268046 156.08724738794592 1.0000000000000115
  endloop
endfacet
facet normal 0.0 0.0 1.0
  outer loop
    vertex 41.663390061255356 133.08724738794706 1.0000000000000115
    vertex 43.663390061268046 156.08724738794592 1.0000000000000115
    vertex 41.663390061268004 156.08724738794703 1.0000000000000115
  endloop
endfacet
facet normal 0.0 0.0 1.0
  outer loop
    vertex 94.66339006125378 130.0872473879179 1.0000000000000115
    vertex 90.66339006125432 131.08724738792006 1.0000000000000115
    vertex 90.66339006125379 130.08724738792006 1.0000000000000115
  endloop
endfacet
facet normal 0.0 0.0 1.0
  outer loop
    vertex 90.66339006125432 131.08724738792006 1.0000000000000115
    vertex 94.66339006125378 130.0872473879179 1.0000000000000115
    vertex 92.66339006125459 131.58724738791895 1.0000000000000115
  endloop
endfacet
facet normal 0.0 0.0 1.0
  outer loop
    vertex 92.66339006125459 131.58724738791895 1.0000000000000115
    vertex 94.66339006125378 130.0872473879179 1.0000000000000115
    vertex 94.66339006125546 133.0872473879179 1.0000000000000115
  endloop
endfacet
facet normal 0.0 0.0 1.0
  outer loop
    vertex 92.66339006125459 131.58724738791895 1.0000000000000115
    vertex 94.66339006125546 133.0872473879179 1.0000000000000115
    vertex 92.66339006125546 133.08724738791895 1.0000000000000115
  endloop
endfacet
facet normal 0.0 0.0 1.0
  outer loop
    vertex 90.66339006125459 131.58724738792006 1.0000000000000115
    vertex 90.66339006125432 131.08724738792006 1.0000000000000115
    vertex 92.66339006125459 131.58724738791895 1.0000000000000115
  endloop
endfacet
facet normal 0.0 0.0 1.0
  outer loop
    vertex 92.6633900612689 157.58724738791895 3.0000000000000115
    vertex 90.66339006126809 156.08724738792003 3.0000000000000115
    vertex 92.66339006126809 156.08724738791892 3.0000000000000115
  endloop
endfacet
facet normal 0.0 0.0 1.0
  outer loop
    vertex 90.66339006126809 156.08724738792003 3.0000000000000115
    vertex 92.6633900612689 157.58724738791895 3.0000000000000115
    vertex 90.6633900612689 157.58724738792003 3.0000000000000115
  endloop
endfacet
facet normal -1.0 5.414335646491973e-13 0.0
  outer loop
    vertex 90.66339006126809 156.08724738792003 3.0000000000000115
    vertex 90.6633900612689 157.58724738792003 1.0000000000000115
    vertex 90.66339006126809 156.08724738792003 1.0000000000000115
  endloop
endfacet
facet normal -1.0 5.414335646491973e-13 0.0
  outer loop
    vertex 90.6633900612689 157.58724738792003 1.0000000000000115
    vertex 90.66339006126809 156.08724738792003 3.0000000000000115
    vertex 90.6633900612689 157.58724738792003 3.0000000000000115
  endloop
endfacet
facet normal -5.52713430579389e-13 -1.0 0.0
  outer loop
    vertex 90.66339006126809 156.08724738792003 3.0000000000000115
    vertex 92.66339006126809 156.08724738791892 1.0000000000000115
    vertex 92.66339006126809 156.08724738791892 3.0000000000000115
  endloop
endfacet
facet normal -5.52713430579389e-13 -1.0 0.0
  outer loop
    vertex 92.66339006126809 156.08724738791892 1.0000000000000115
    vertex 90.66339006126809 156.08724738792003 3.0000000000000115
    vertex 90.66339006126809 156.08724738792003 1.0000000000000115
  endloop
endfacet
facet normal -1.0 5.414335646491973e-13 0.0
  outer loop
    vertex 92.66339006126809 156.08724738791892 3.0000000000000115
    vertex 92.6633900612689 157.58724738791895 1.0000000000000115
    vertex 92.66339006126809 156.08724738791892 1.0000000000000115
  endloop
endfacet
facet normal -1.0 5.414335646491973e-13 0.0
  outer loop
    vertex 92.6633900612689 157.58724738791895 1.0000000000000115
    vertex 92.66339006126809 156.08724738791892 3.0000000000000115
    vertex 92.6633900612689 157.58724738791895 3.0000000000000115
  endloop
endfacet
facet normal -5.52713430579389e-13 -1.0 0.0
  outer loop
    vertex 90.6633900612689 157.58724738792003 3.0000000000000115
    vertex 92.6633900612689 157.58724738791895 1.0000000000000115
    vertex 92.6633900612689 157.58724738791895 3.0000000000000115
  endloop
endfacet
facet normal -5.52713430579389e-13 -1.0 0.0
  outer loop
    vertex 92.6633900612689 157.58724738791895 1.0000000000000115
    vertex 90.6633900612689 157.58724738792003 3.0000000000000115
    vertex 90.6633900612689 157.58724738792003 1.0000000000000115
  endloop
endfacet
facet normal 0.0 0.0 1.0
  outer loop
    vertex 92.66339006125546 133.08724738791895 3.0000000000000133
    vertex 90.66339006125459 131.58724738792006 3.0000000000000133
    vertex 92.66339006125459 131.58724738791895 3.0000000000000133
  endloop
endfacet
facet normal 0.0 0.0 1.0
  outer loop
    vertex 90.66339006125459 131.58724738792006 3.0000000000000133
    vertex 92.66339006125546 133.08724738791895 3.0000000000000133
    vertex 90.66339006125546 133.08724738792006 3.0000000000000133
  endloop
endfacet
facet normal 5.639932965095805e-13 1.0 0.0
  outer loop
    vertex 90.66339006125546 133.08724738792006 1.0000000000000115
    vertex 92.66339006125546 133.08724738791895 3.0000000000000133
    vertex 92.66339006125546 133.08724738791895 1.0000000000000115
  endloop
endfacet
facet normal 5.639932965095805e-13 1.0 0.0
  outer loop
    vertex 92.66339006125546 133.08724738791895 3.0000000000000133
    vertex 90.66339006125546 133.08724738792006 1.0000000000000115
    vertex 90.66339006125546 133.08724738792006 3.0000000000000133
  endloop
endfacet
facet normal -1.0 5.564733858894528e-13 0.0
  outer loop
    vertex 90.66339006125459 131.58724738792006 3.0000000000000133
    vertex 90.66339006125546 133.08724738792006 1.0000000000000115
    vertex 90.66339006125459 131.58724738792006 1.0000000000000115
  endloop
endfacet
facet normal -1.0 5.564733858894528e-13 0.0
  outer loop
    vertex 90.66339006125546 133.08724738792006 1.0000000000000115
    vertex 90.66339006125459 131.58724738792006 3.0000000000000133
    vertex 90.66339006125546 133.08724738792006 3.0000000000000133
  endloop
endfacet
facet normal 5.527134305793889e-13 1.0 0.0
  outer loop
    vertex 90.66339006125459 131.58724738792006 1.0000000000000115
    vertex 92.66339006125459 131.58724738791895 3.0000000000000133
    vertex 92.66339006125459 131.58724738791895 1.0000000000000115
  endloop
endfacet
facet normal 5.527134305793889e-13 1.0 0.0
  outer loop
    vertex 92.66339006125459 131.58724738791895 3.0000000000000133
    vertex 90.66339006125459 131.58724738792006 1.0000000000000115
    vertex 90.66339006125459 131.58724738792006 3.0000000000000133
  endloop
endfacet
facet normal -1.0 5.564733858894612e-13 0.0
  outer loop
    vertex 92.66339006125459 131.58724738791895 3.0000000000000133
    vertex 92.66339006125546 133.08724738791895 1.0000000000000115
    vertex 92.66339006125459 131.58724738791895 1.0000000000000115
  endloop
endfacet
facet normal -1.0 5.564733858894612e-13 0.0
  outer loop
    vertex 92.66339006125546 133.08724738791895 1.0000000000000115
    vertex 92.66339006125459 131.58724738791895 3.0000000000000133
    vertex 92.66339006125546 133.08724738791895 3.0000000000000133
  endloop
endfacet
facet normal 0.0 0.0 -1.0
  outer loop
    vertex 39.66339006127483 179.0872473879476 1.762479051592436e-15
    vertex 44.66339006126902 155.58724738792006 -2.0797252808790744e-14
    vertex 39.66339006127483 109.08724738794758 1.762479051592436e-15
  endloop
endfacet
facet normal 0.0 0.0 -1.0
  outer loop
    vertex 44.66339006126902 155.58724738792006 -2.0797252808790744e-14
    vertex 39.66339006127483 179.0872473879476 1.762479051592436e-15
    vertex 109.66339006127482 179.0872473879476 1.762479051592436e-15
  endloop
endfacet
facet normal 0.0 0.0 -1.0
  outer loop
    vertex 44.66339006126902 155.58724738792006 -2.0797252808790744e-14
    vertex 109.66339006127482 179.0872473879476 1.762479051592436e-15
    vertex 91.66339006128065 155.58724738792006 -2.0797252808790744e-14
  endloop
endfacet
facet normal 0.0 0.0 -1.0
  outer loop
    vertex 91.66339006128065 155.58724738792006 -2.0797252808790744e-14
    vertex 109.66339006127482 179.0872473879476 1.762479051592436e-15
    vertex 91.66339006128065 133.58724738794595 -2.0797252808790744e-14
  endloop
endfacet
facet normal 0.0 0.0 -1.0
  outer loop
    vertex 39.66339006127483 109.08724738794758 1.762479051592436e-15
    vertex 44.66339006126902 133.58724738794595 -2.0797252808790744e-14
    vertex 109.66339006127482 109.08724738794758 1.762479051592436e-15
  endloop
endfacet
facet normal 0.0 0.0 -1.0
  outer loop
    vertex 44.66339006126902 133.58724738794595 -2.0797252808790744e-14
    vertex 39.66339006127483 109.08724738794758 1.762479051592436e-15
    vertex 44.66339006126902 155.58724738792006 -2.0797252808790744e-14
  endloop
endfacet
facet normal 0.0 0.0 -1.0
  outer loop
    vertex 109.66339006127482 109.08724738794758 1.762479051592436e-15
    vertex 44.66339006126902 133.58724738794595 -2.0797252808790744e-14
    vertex 91.66339006128065 133.58724738794595 -2.0797252808790744e-14
  endloop
endfacet
facet normal 0.0 0.0 -1.0
  outer loop
    vertex 109.66339006127482 109.08724738794758 1.762479051592436e-15
    vertex 91.66339006128065 133.58724738794595 -2.0797252808790744e-14
    vertex 109.66339006127482 179.0872473879476 1.762479051592436e-15
  endloop
endfacet
facet normal -0.0 -1.0 -0.0
  outer loop
    vertex 109.66339006127482 109.08724738794758 1.0000000000023
    vertex 39.66339006127483 109.08724738794758 1.762479051592436e-15
    vertex 109.66339006127482 109.08724738794758 1.762479051592436e-15
  endloop
endfacet
facet normal -0.0 -1.0 -0.0
  outer loop
    vertex 39.66339006127483 109.08724738794758 1.762479051592436e-15
    vertex 109.66339006127482 109.08724738794758 1.0000000000023
    vertex 39.66339006127483 109.08724738794758 1.0000000000023
  endloop
endfacet
facet normal 5.961326203918046e-17 3.5144076041659945e-17 1.0
  outer loop
    vertex 40.663390061274825 110.08724738794758 1.0000000000000018
    vertex 40.66339006126903 154.58724738794757 1.0000000000000018
    vertex 40.663390061257545 133.5872473879476 1.000000000000018
  endloop
endfacet
facet normal 5.961326203918046e-17 3.5144076041659945e-17 1.0
  outer loop
    vertex 40.66339006126903 154.58724738794757 1.0000000000000018
    vertex 40.663390061274825 110.08724738794758 1.0000000000000018
    vertex 40.66339006127485 178.0872473879476 1.0000000000000018
  endloop
endfacet
facet normal 5.961326203918046e-17 3.5144076041659945e-17 1.0
  outer loop
    vertex 40.66339006127485 178.0872473879476 1.0000000000000018
    vertex 40.663390061274825 110.08724738794758 1.0000000000000018
    vertex 44.66339006126902 133.58724738794595 1.0000000000000018
  endloop
endfacet
facet normal 5.961326203918046e-17 3.5144076041659945e-17 1.0
  outer loop
    vertex 44.66339006126902 133.58724738794595 1.0000000000000018
    vertex 40.663390061274825 110.08724738794758 1.0000000000000018
    vertex 108.66339006127482 110.08724738794758 1.0000000000000018
  endloop
endfacet
facet normal 5.961326203918046e-17 3.5144076041659945e-17 1.0
  outer loop
    vertex 44.66339006126902 133.58724738794595 1.0000000000000018
    vertex 108.66339006127482 110.08724738794758 1.0000000000000018
    vertex 91.66339006128065 133.58724738794595 1.0000000000000018
  endloop
endfacet
facet normal 5.961326203918046e-17 3.5144076041659945e-17 1.0
  outer loop
    vertex 91.66339006128065 133.58724738794595 1.0000000000000018
    vertex 108.66339006127482 110.08724738794758 1.0000000000000018
    vertex 91.66339006128065 155.58724738792006 1.0000000000000018
  endloop
endfacet
facet normal 5.961326203918046e-17 3.5144076041659945e-17 1.0
  outer loop
    vertex 40.66339006127485 178.0872473879476 1.0000000000000018
    vertex 44.66339006126902 155.58724738792006 1.0000000000000018
    vertex 108.66339006127482 178.0872473879476 1.0000000000000018
  endloop
endfacet
facet normal 5.961326203918046e-17 3.5144076041659945e-17 1.0
  outer loop
    vertex 44.66339006126902 155.58724738792006 1.0000000000000018
    vertex 40.66339006127485 178.0872473879476 1.0000000000000018
    vertex 44.66339006126902 133.58724738794595 1.0000000000000018
  endloop
endfacet
facet normal 5.961326203918046e-17 3.5144076041659945e-17 1.0
  outer loop
    vertex 108.66339006127482 178.0872473879476 1.0000000000000018
    vertex 44.66339006126902 155.58724738792006 1.0000000000000018
    vertex 91.66339006128065 155.58724738792006 1.0000000000000018
  endloop
endfacet
facet normal 5.961326203918046e-17 3.5144076041659945e-17 1.0
  outer loop
    vertex 108.66339006127482 178.0872473879476 1.0000000000000018
    vertex 91.66339006128065 155.58724738792006 1.0000000000000018
    vertex 108.66339006127482 110.08724738794758 1.0000000000000018
  endloop
endfacet
facet normal 0.0 1.0 0.0
  outer loop
    vertex 39.66339006127483 179.0872473879476 1.0000000000023
    vertex 109.66339006127482 179.0872473879476 1.762479051592436e-15
    vertex 39.66339006127483 179.0872473879476 1.762479051592436e-15
  endloop
endfacet
facet normal 0.0 1.0 0.0
  outer loop
    vertex 109.66339006127482 179.0872473879476 1.762479051592436e-15
    vertex 39.66339006127483 179.0872473879476 1.0000000000023
    vertex 109.66339006127482 179.0872473879476 1.0000000000023
  endloop
endfacet
facet normal 1.0 0.0 0.0
  outer loop
    vertex 109.66339006127482 179.0872473879476 1.762479051592436e-15
    vertex 109.66339006127482 109.08724738794758 1.0000000000023
    vertex 109.66339006127482 109.08724738794758 1.762479051592436e-15
  endloop
endfacet
facet normal 1.0 0.0 0.0
  outer loop
    vertex 109.66339006127482 109.08724738794758 1.0000000000023
    vertex 109.66339006127482 179.0872473879476 1.762479051592436e-15
    vertex 109.66339006127482 179.0872473879476 1.0000000000023
  endloop
endfacet
facet normal -1.0 -6.52913145297255e-27 -2.7015278902747173e-11
  outer loop
    vertex 39.6633900612208 133.58724738794825 1.000000000002315
    vertex 39.66339006127483 109.08724738794758 1.762479051592436e-15
    vertex 39.66339006127483 109.08724738794758 1.0000000000023
  endloop
endfacet
facet normal -1.0 -6.52913145297255e-27 -2.7015278902747173e-11
  outer loop
    vertex 39.66339006127483 109.08724738794758 1.762479051592436e-15
    vertex 39.6633900612208 133.58724738794825 1.000000000002315
    vertex 39.66339006127483 179.0872473879476 1.762479051592436e-15
  endloop
endfacet
facet normal -1.0 -6.52913145297255e-27 -2.7015278902747173e-11
  outer loop
    vertex 39.66339006127483 179.0872473879476 1.762479051592436e-15
    vertex 39.6633900612208 133.58724738794825 1.000000000002315
    vertex 39.6633900612208 154.58724738794817 1.000000000002315
  endloop
endfacet
facet normal -1.0 -6.52913145297255e-27 -2.7015278902747173e-11
  outer loop
    vertex 39.66339006127483 179.0872473879476 1.762479051592436e-15
    vertex 39.6633900612208 154.58724738794817 1.000000000002315
    vertex 39.66339006127483 179.0872473879476 1.0000000000023
  endloop
endfacet
facet normal -1.0 -0.0 -0.0
  outer loop
    vertex 91.66339006128065 155.58724738792006 1.0000000000000018
    vertex 91.66339006128065 133.58724738794595 -2.0797252808790744e-14
    vertex 91.66339006128065 133.58724738794595 1.0000000000000018
  endloop
endfacet
facet normal -1.0 -0.0 -0.0
  outer loop
    vertex 91.66339006128065 133.58724738794595 -2.0797252808790744e-14
    vertex 91.66339006128065 155.58724738792006 1.0000000000000018
    vertex 91.66339006128065 155.58724738792006 -2.0797252808790744e-14
  endloop
endfacet
facet normal 0.0 -1.0 0.0
  outer loop
    vertex 91.66339006128065 155.58724738792006 1.0000000000000018
    vertex 44.66339006126902 155.58724738792006 -2.0797252808790744e-14
    vertex 91.66339006128065 155.58724738792006 -2.0797252808790744e-14
  endloop
endfacet
facet normal 0.0 -1.0 0.0
  outer loop
    vertex 44.66339006126902 155.58724738792006 -2.0797252808790744e-14
    vertex 91.66339006128065 155.58724738792006 1.0000000000000018
    vertex 44.66339006126902 155.58724738792006 1.0000000000000018
  endloop
endfacet
facet normal 1.0 0.0 0.0
  outer loop
    vertex 44.66339006126902 155.58724738792006 -2.0797252808790744e-14
    vertex 44.66339006126902 133.58724738794595 1.0000000000000018
    vertex 44.66339006126902 133.58724738794595 -2.0797252808790744e-14
  endloop
endfacet
facet normal 1.0 0.0 0.0
  outer loop
    vertex 44.66339006126902 133.58724738794595 1.0000000000000018
    vertex 44.66339006126902 155.58724738792006 -2.0797252808790744e-14
    vertex 44.66339006126902 155.58724738792006 1.0000000000000018
  endloop
endfacet
facet normal 0.0 1.0 0.0
  outer loop
    vertex 44.66339006126902 133.58724738794595 1.0000000000000018
    vertex 91.66339006128065 133.58724738794595 -2.0797252808790744e-14
    vertex 44.66339006126902 133.58724738794595 -2.0797252808790744e-14
  endloop
endfacet
facet normal 0.0 1.0 0.0
  outer loop
    vertex 91.66339006128065 133.58724738794595 -2.0797252808790744e-14
    vertex 44.66339006126902 133.58724738794595 1.0000000000000018
    vertex 91.66339006128065 133.58724738794595 1.0000000000000018
  endloop
endfacet
facet normal 1.0826657031219037e-16 -1.8321543465008392e-30 1.0
  outer loop
    vertex 39.66339006127483 109.08724738794758 1.0000000000023
    vertex 39.6633900612208 154.58724738794817 1.000000000002315
    vertex 39.6633900612208 133.58724738794825 1.000000000002315
  endloop
endfacet
facet normal 1.0826657031219037e-16 -1.8321543465008392e-30 1.0
  outer loop
    vertex 39.6633900612208 154.58724738794817 1.000000000002315
    vertex 39.66339006127483 109.08724738794758 1.0000000000023
    vertex 39.66339006127483 179.0872473879476 1.0000000000023
  endloop
endfacet
facet normal 1.0826657031219037e-16 -1.8321543465008392e-30 1.0
  outer loop
    vertex 39.66339006127483 179.0872473879476 1.0000000000023
    vertex 39.66339006127483 109.08724738794758 1.0000000000023
    vertex 40.663390061274825 110.08724738794758 1.0000000000000018
  endloop
endfacet
facet normal 1.0826657031219037e-16 -1.8321543465008392e-30 1.0
  outer loop
    vertex 40.663390061274825 110.08724738794758 1.0000000000000018
    vertex 39.66339006127483 109.08724738794758 1.0000000000023
    vertex 109.66339006127482 109.08724738794758 1.0000000000023
  endloop
endfacet
facet normal 1.0826657031219037e-16 -1.8321543465008392e-30 1.0
  outer loop
    vertex 39.66339006127483 179.0872473879476 1.0000000000023
    vertex 40.663390061274825 110.08724738794758 1.0000000000000018
    vertex 40.663390061257545 133.5872473879476 1.000000000000018
  endloop
endfacet
facet normal 1.0826657031219037e-16 -1.8321543465008392e-30 1.0
  outer loop
    vertex 40.663390061274825 110.08724738794758 1.0000000000000018
    vertex 109.66339006127482 109.08724738794758 1.0000000000023
    vertex 108.66339006127482 110.08724738794758 1.0000000000000018
  endloop
endfacet
facet normal 1.0826657031219037e-16 -1.8321543465008392e-30 1.0
  outer loop
    vertex 108.66339006127482 110.08724738794758 1.0000000000000018
    vertex 109.66339006127482 109.08724738794758 1.0000000000023
    vertex 108.66339006127482 178.0872473879476 1.0000000000000018
  endloop
endfacet
facet normal 1.0826657031219037e-16 -1.8321543465008392e-30 1.0
  outer loop
    vertex 39.66339006127483 179.0872473879476 1.0000000000023
    vertex 40.66339006127485 178.0872473879476 1.0000000000000018
    vertex 109.66339006127482 179.0872473879476 1.0000000000023
  endloop
endfacet
facet normal 1.0826657031219037e-16 -1.8321543465008392e-30 1.0
  outer loop
    vertex 40.66339006127485 178.0872473879476 1.0000000000000018
    vertex 39.66339006127483 179.0872473879476 1.0000000000023
    vertex 40.663390061257545 133.5872473879476 1.000000000000018
  endloop
endfacet
facet normal 1.0826657031219037e-16 -1.8321543465008392e-30 1.0
  outer loop
    vertex 40.66339006127485 178.0872473879476 1.0000000000000018
    vertex 40.663390061257545 133.5872473879476 1.000000000000018
    vertex 40.66339006126903 154.58724738794757 1.0000000000000018
  endloop
endfacet
facet normal 1.0826657031219037e-16 -1.8321543465008392e-30 1.0
  outer loop
    vertex 109.66339006127482 179.0872473879476 1.0000000000023
    vertex 40.66339006127485 178.0872473879476 1.0000000000000018
    vertex 108.66339006127482 178.0872473879476 1.0000000000000018
  endloop
endfacet
facet normal 1.0826657031219037e-16 -1.8321543465008392e-30 1.0
  outer loop
    vertex 109.66339006127482 179.0872473879476 1.0000000000023
    vertex 108.66339006127482 178.0872473879476 1.0000000000000018
    vertex 109.66339006127482 109.08724738794758 1.0000000000023
  endloop
endfacet
facet normal 0.0 -1.0 0.0
  outer loop
    vertex 94.66339006126974 156.08724738791895 7.000000000000018
    vertex 92.16339006126809 156.08724738791895 6.000000000000019
    vertex 94.66339006126974 156.08724738791895 6.000000000000019
  endloop
endfacet
facet normal 0.0 -1.0 0.0
  outer loop
    vertex 92.16339006126809 156.08724738791895 6.000000000000019
    vertex 94.66339006126974 156.08724738791895 7.000000000000018
    vertex 92.16339006126809 156.08724738791895 7.000000000000018
  endloop
endfacet
facet normal 0.0 -1.0 0.0
  outer loop
    vertex 92.16339006126809 156.08724738791895 7.000000000000018
    vertex 91.66339006126809 156.08724738791895 6.500000000000018
    vertex 92.16339006126809 156.08724738791895 6.000000000000019
  endloop
endfacet
facet normal -0.7071067811865476 0.0 -0.7071067811865476
  outer loop
    vertex 91.66339006126809 159.08724738791784 6.500000000000018
    vertex 92.16339006126809 156.08724738791895 6.000000000000019
    vertex 91.66339006126809 156.08724738791895 6.500000000000018
  endloop
endfacet
facet normal -0.7071067811865476 0.0 -0.7071067811865476
  outer loop
    vertex 92.16339006126809 156.08724738791895 6.000000000000019
    vertex 91.66339006126809 159.08724738791784 6.500000000000018
    vertex 92.16339006126809 159.08724738791784 6.000000000000019
  endloop
endfacet
facet normal -0.7071067811865486 0.0 0.7071067811865466
  outer loop
    vertex 92.16339006126809 159.08724738791784 7.000000000000018
    vertex 91.66339006126809 156.08724738791895 6.500000000000018
    vertex 92.16339006126809 156.08724738791895 7.000000000000018
  endloop
endfacet
facet normal -0.7071067811865486 0.0 0.7071067811865466
  outer loop
    vertex 91.66339006126809 156.08724738791895 6.500000000000018
    vertex 92.16339006126809 159.08724738791784 7.000000000000018
    vertex 91.66339006126809 159.08724738791784 6.500000000000018
  endloop
endfacet
facet normal 1.0 0.0 0.0
  outer loop
    vertex 94.66339006126974 159.08724738791784 6.000000000000019
    vertex 94.66339006126974 156.08724738791895 7.000000000000018
    vertex 94.66339006126974 156.08724738791895 6.000000000000019
  endloop
endfacet
facet normal 1.0 0.0 0.0
  outer loop
    vertex 94.66339006126974 156.08724738791895 7.000000000000018
    vertex 94.66339006126974 159.08724738791784 6.000000000000019
    vertex 94.66339006126974 159.08724738791784 7.000000000000018
  endloop
endfacet
facet normal 0.0 0.0 1.0
  outer loop
    vertex 94.66339006126974 156.08724738791895 7.000000000000018
    vertex 92.16339006126809 159.08724738791784 7.000000000000018
    vertex 92.16339006126809 156.08724738791895 7.000000000000018
  endloop
endfacet
facet normal 0.0 0.0 1.0
  outer loop
    vertex 92.16339006126809 159.08724738791784 7.000000000000018
    vertex 94.66339006126974 156.08724738791895 7.000000000000018
    vertex 94.66339006126974 159.08724738791784 7.000000000000018
  endloop
endfacet
facet normal 0.0 1.0 0.0
  outer loop
    vertex 91.66339006126809 159.08724738791784 6.500000000000018
    vertex 94.66339006126974 159.08724738791784 6.000000000000019
    vertex 92.16339006126809 159.08724738791784 6.000000000000019
  endloop
endfacet
facet normal 0.0 1.0 0.0
  outer loop
    vertex 94.66339006126974 159.08724738791784 6.000000000000019
    vertex 91.66339006126809 159.08724738791784 6.500000000000018
    vertex 94.66339006126974 159.08724738791784 7.000000000000018
  endloop
endfacet
facet normal 0.0 1.0 0.0
  outer loop
    vertex 94.66339006126974 159.08724738791784 7.000000000000018
    vertex 91.66339006126809 159.08724738791784 6.500000000000018
    vertex 92.16339006126809 159.08724738791784 7.000000000000018
  endloop
endfacet
facet normal 0.0 0.0 -1.0
  outer loop
    vertex 94.66339006126974 159.08724738791784 6.000000000000019
    vertex 92.16339006126809 156.08724738791895 6.000000000000019
    vertex 92.16339006126809 159.08724738791784 6.000000000000019
  endloop
endfacet
facet normal 0.0 0.0 -1.0
  outer loop
    vertex 92.16339006126809 156.08724738791895 6.000000000000019
    vertex 94.66339006126974 159.08724738791784 6.000000000000019
    vertex 94.66339006126974 156.08724738791895 6.000000000000019
  endloop
endfacet
facet normal 0.0 -1.0 0.0
  outer loop
    vertex 94.66339006125378 130.0872473879179 7.00000000000001
    vertex 92.16339006125214 130.0872473879179 6.00000000000001
    vertex 94.66339006125378 130.0872473879179 6.00000000000001
  endloop
endfacet
facet normal 0.0 -1.0 0.0
  outer loop
    vertex 92.16339006125214 130.0872473879179 6.00000000000001
    vertex 94.66339006125378 130.0872473879179 7.00000000000001
    vertex 92.16339006125214 130.0872473879179 7.00000000000001
  endloop
endfacet
facet normal 0.0 -1.0 0.0
  outer loop
    vertex 92.16339006125214 130.0872473879179 7.00000000000001
    vertex 91.66339006125214 130.0872473879179 6.500000000000009
    vertex 92.16339006125214 130.0872473879179 6.00000000000001
  endloop
endfacet
facet normal -0.7071067811865476 0.0 -0.7071067811865476
  outer loop
    vertex 91.66339006125214 133.0872473879168 6.500000000000009
    vertex 92.16339006125214 130.0872473879179 6.00000000000001
    vertex 91.66339006125214 130.0872473879179 6.500000000000009
  endloop
endfacet
facet normal -0.7071067811865476 0.0 -0.7071067811865476
  outer loop
    vertex 92.16339006125214 130.0872473879179 6.00000000000001
    vertex 91.66339006125214 133.0872473879168 6.500000000000009
    vertex 92.16339006125214 133.0872473879168 6.00000000000001
  endloop
endfacet
facet normal -0.7071067811865486 0.0 0.7071067811865466
  outer loop
    vertex 92.16339006125214 133.0872473879168 7.00000000000001
    vertex 91.66339006125214 130.0872473879179 6.500000000000009
    vertex 92.16339006125214 130.0872473879179 7.00000000000001
  endloop
endfacet
facet normal -0.7071067811865486 0.0 0.7071067811865466
  outer loop
    vertex 91.66339006125214 130.0872473879179 6.500000000000009
    vertex 92.16339006125214 133.0872473879168 7.00000000000001
    vertex 91.66339006125214 133.0872473879168 6.500000000000009
  endloop
endfacet
facet normal 1.0 0.0 0.0
  outer loop
    vertex 94.66339006125378 133.0872473879168 6.00000000000001
    vertex 94.66339006125378 130.0872473879179 7.00000000000001
    vertex 94.66339006125378 130.0872473879179 6.00000000000001
  endloop
endfacet
facet normal 1.0 0.0 0.0
  outer loop
    vertex 94.66339006125378 130.0872473879179 7.00000000000001
    vertex 94.66339006125378 133.0872473879168 6.00000000000001
    vertex 94.66339006125378 133.0872473879168 7.00000000000001
  endloop
endfacet
facet normal 0.0 0.0 1.0
  outer loop
    vertex 94.66339006125378 130.0872473879179 7.00000000000001
    vertex 92.16339006125214 133.0872473879168 7.00000000000001
    vertex 92.16339006125214 130.0872473879179 7.00000000000001
  endloop
endfacet
facet normal 0.0 0.0 1.0
  outer loop
    vertex 92.16339006125214 133.0872473879168 7.00000000000001
    vertex 94.66339006125378 130.0872473879179 7.00000000000001
    vertex 94.66339006125378 133.0872473879168 7.00000000000001
  endloop
endfacet
facet normal 0.0 1.0 0.0
  outer loop
    vertex 91.66339006125214 133.0872473879168 6.500000000000009
    vertex 94.66339006125378 133.0872473879168 6.00000000000001
    vertex 92.16339006125214 133.0872473879168 6.00000000000001
  endloop
endfacet
facet normal 0.0 1.0 0.0
  outer loop
    vertex 94.66339006125378 133.0872473879168 6.00000000000001
    vertex 91.66339006125214 133.0872473879168 6.500000000000009
    vertex 94.66339006125378 133.0872473879168 7.00000000000001
  endloop
endfacet
facet normal 0.0 1.0 0.0
  outer loop
    vertex 94.66339006125378 133.0872473879168 7.00000000000001
    vertex 91.66339006125214 133.0872473879168 6.500000000000009
    vertex 92.16339006125214 133.0872473879168 7.00000000000001
  endloop
endfacet
facet normal 0.0 0.0 -1.0
  outer loop
    vertex 94.66339006125378 133.0872473879168 6.00000000000001
    vertex 92.16339006125214 130.0872473879179 6.00000000000001
    vertex 92.16339006125214 133.0872473879168 6.00000000000001
  endloop
endfacet
facet normal 0.0 0.0 -1.0
  outer loop
    vertex 92.16339006125214 130.0872473879179 6.00000000000001
    vertex 94.66339006125378 133.0872473879168 6.00000000000001
    vertex 94.66339006125378 130.0872473879179 6.00000000000001
  endloop
endfacet
facet normal 2.654761566129944e-09 1.0 -1.303208332566222e-25
  outer loop
    vertex 40.66339001128862 159.08724733796632 7.000000000000007
    vertex 41.66339001129027 159.0872473353116 6.000000000000007
    vertex 40.66339001128862 159.08724733796632 6.000000000000007
  endloop
endfacet
facet normal 2.654761566129944e-09 1.0 -1.303208332566222e-25
  outer loop
    vertex 41.66339001129027 159.0872473353116 6.000000000000007
    vertex 40.66339001128862 159.08724733796632 7.000000000000007
    vertex 41.66339001129027 159.0872473353116 7.000000000000007
  endloop
endfacet
facet normal 2.654739006402456e-09 1.0 6.213846049277502e-26
  outer loop
    vertex 41.66339001129027 159.0872473353116 7.000000000000007
    vertex 42.16339001129027 159.0872473339842 6.500000000000006
    vertex 41.66339001129027 159.0872473353116 6.000000000000007
  endloop
endfacet
facet normal 0.7071067811865475 -1.8771906028570276e-09 -0.7071067811865476
  outer loop
    vertex 41.66339000332602 156.0872473353127 6.000000000000007
    vertex 42.16339001129027 159.0872473339842 6.500000000000006
    vertex 42.16339000332602 156.08724733398532 6.500000000000006
  endloop
endfacet
facet normal 0.7071067811865475 -1.8771906028570276e-09 -0.7071067811865476
  outer loop
    vertex 42.16339001129027 159.0872473339842 6.500000000000006
    vertex 41.66339000332602 156.0872473353127 6.000000000000007
    vertex 41.66339001129027 159.0872473353116 6.000000000000007
  endloop
endfacet
facet normal 0.7071067811865486 -1.8771906028570297e-09 0.7071067811865466
  outer loop
    vertex 41.66339000332602 156.0872473353127 7.000000000000007
    vertex 42.16339001129027 159.0872473339842 6.500000000000006
    vertex 41.66339001129027 159.0872473353116 7.000000000000007
  endloop
endfacet
facet normal 0.7071067811865486 -1.8771906028570297e-09 0.7071067811865466
  outer loop
    vertex 42.16339001129027 159.0872473339842 6.500000000000006
    vertex 41.66339000332602 156.0872473353127 7.000000000000007
    vertex 42.16339000332602 156.08724733398532 6.500000000000006
  endloop
endfacet
facet normal -1.0 2.6547485251771086e-09 0.0
  outer loop
    vertex 40.66339000332437 156.08724733796743 6.000000000000007
    vertex 40.66339001128862 159.08724733796632 7.000000000000007
    vertex 40.66339001128862 159.08724733796632 6.000000000000007
  endloop
endfacet
facet normal -1.0 2.6547485251771086e-09 0.0
  outer loop
    vertex 40.66339001128862 159.08724733796632 7.000000000000007
    vertex 40.66339000332437 156.08724733796743 6.000000000000007
    vertex 40.66339000332437 156.08724733796743 7.000000000000007
  endloop
endfacet
facet normal 0.0 0.0 1.0
  outer loop
    vertex 40.66339001128862 159.08724733796632 7.000000000000007
    vertex 41.66339000332602 156.0872473353127 7.000000000000007
    vertex 41.66339001129027 159.0872473353116 7.000000000000007
  endloop
endfacet
facet normal 0.0 0.0 1.0
  outer loop
    vertex 41.66339000332602 156.0872473353127 7.000000000000007
    vertex 40.66339001128862 159.08724733796632 7.000000000000007
    vertex 40.66339000332437 156.08724733796743 7.000000000000007
  endloop
endfacet
facet normal -2.6547565528571693e-09 -1.0 7.795166945568067e-26
  outer loop
    vertex 42.16339000332602 156.08724733398532 6.500000000000006
    vertex 40.66339000332437 156.08724733796743 6.000000000000007
    vertex 41.66339000332602 156.0872473353127 6.000000000000007
  endloop
endfacet
facet normal -2.6547565528571693e-09 -1.0 7.795166945568067e-26
  outer loop
    vertex 40.66339000332437 156.08724733796743 6.000000000000007
    vertex 42.16339000332602 156.08724733398532 6.500000000000006
    vertex 40.66339000332437 156.08724733796743 7.000000000000007
  endloop
endfacet
facet normal -2.6547565528571693e-09 -1.0 7.795166945568067e-26
  outer loop
    vertex 40.66339000332437 156.08724733796743 7.000000000000007
    vertex 42.16339000332602 156.08724733398532 6.500000000000006
    vertex 41.66339000332602 156.0872473353127 7.000000000000007
  endloop
endfacet
facet normal 0.0 0.0 -1.0
  outer loop
    vertex 40.66339000332437 156.08724733796743 6.000000000000007
    vertex 41.66339001129027 159.0872473353116 6.000000000000007
    vertex 41.66339000332602 156.0872473353127 6.000000000000007
  endloop
endfacet
facet normal 0.0 0.0 -1.0
  outer loop
    vertex 41.66339001129027 159.0872473353116 6.000000000000007
    vertex 40.66339000332437 156.08724733796743 6.000000000000007
    vertex 40.66339001128862 159.08724733796632 6.000000000000007
  endloop
endfacet
facet normal 2.654761566129944e-09 1.0 -1.303208332566222e-25
  outer loop
    vertex 40.66339006921799 133.08724738794652 7.000000000000007
    vertex 41.66339006921964 133.08724738529176 6.000000000000007
    vertex 40.66339006921799 133.08724738794652 6.000000000000007
  endloop
endfacet
facet normal 2.654761566129944e-09 1.0 -1.303208332566222e-25
  outer loop
    vertex 41.66339006921964 133.08724738529176 6.000000000000007
    vertex 40.66339006921799 133.08724738794652 7.000000000000007
    vertex 41.66339006921964 133.08724738529176 7.000000000000007
  endloop
endfacet
facet normal 2.654739006402456e-09 1.0 6.213846049277502e-26
  outer loop
    vertex 41.66339006921964 133.08724738529176 7.000000000000007
    vertex 42.16339006921964 133.0872473839644 6.500000000000006
    vertex 41.66339006921964 133.08724738529176 6.000000000000007
  endloop
endfacet
facet normal 0.7071067811865475 -1.8771906028570276e-09 -0.7071067811865476
  outer loop
    vertex 41.66339006125539 130.08724738529287 6.000000000000007
    vertex 42.16339006921964 133.0872473839644 6.500000000000006
    vertex 42.16339006125539 130.08724738396552 6.500000000000006
  endloop
endfacet
facet normal 0.7071067811865475 -1.8771906028570276e-09 -0.7071067811865476
  outer loop
    vertex 42.16339006921964 133.0872473839644 6.500000000000006
    vertex 41.66339006125539 130.08724738529287 6.000000000000007
    vertex 41.66339006921964 133.08724738529176 6.000000000000007
  endloop
endfacet
facet normal 0.7071067811865486 -1.8771906028570297e-09 0.7071067811865466
  outer loop
    vertex 41.66339006125539 130.08724738529287 7.000000000000007
    vertex 42.16339006921964 133.0872473839644 6.500000000000006
    vertex 41.66339006921964 133.08724738529176 7.000000000000007
  endloop
endfacet
facet normal 0.7071067811865486 -1.8771906028570297e-09 0.7071067811865466
  outer loop
    vertex 42.16339006921964 133.0872473839644 6.500000000000006
    vertex 41.66339006125539 130.08724738529287 7.000000000000007
    vertex 42.16339006125539 130.08724738396552 6.500000000000006
  endloop
endfacet
facet normal -1.0 2.6547485251771086e-09 0.0
  outer loop
    vertex 40.66339006125374 130.08724738794763 6.000000000000007
    vertex 40.66339006921799 133.08724738794652 7.000000000000007
    vertex 40.66339006921799 133.08724738794652 6.000000000000007
  endloop
endfacet
facet normal -1.0 2.6547485251771086e-09 0.0
  outer loop
    vertex 40.66339006921799 133.08724738794652 7.000000000000007
    vertex 40.66339006125374 130.08724738794763 6.000000000000007
    vertex 40.66339006125374 130.08724738794763 7.000000000000007
  endloop
endfacet
facet normal 0.0 0.0 1.0
  outer loop
    vertex 40.66339006921799 133.08724738794652 7.000000000000007
    vertex 41.66339006125539 130.08724738529287 7.000000000000007
    vertex 41.66339006921964 133.08724738529176 7.000000000000007
  endloop
endfacet
facet normal 0.0 0.0 1.0
  outer loop
    vertex 41.66339006125539 130.08724738529287 7.000000000000007
    vertex 40.66339006921799 133.08724738794652 7.000000000000007
    vertex 40.66339006125374 130.08724738794763 7.000000000000007
  endloop
endfacet
facet normal -2.6547565528571693e-09 -1.0 7.795166945568067e-26
  outer loop
    vertex 42.16339006125539 130.08724738396552 6.500000000000006
    vertex 40.66339006125374 130.08724738794763 6.000000000000007
    vertex 41.66339006125539 130.08724738529287 6.000000000000007
  endloop
endfacet
facet normal -2.6547565528571693e-09 -1.0 7.795166945568067e-26
  outer loop
    vertex 40.66339006125374 130.08724738794763 6.000000000000007
    vertex 42.16339006125539 130.08724738396552 6.500000000000006
    vertex 40.66339006125374 130.08724738794763 7.000000000000007
  endloop
endfacet
facet normal -2.6547565528571693e-09 -1.0 7.795166945568067e-26
  outer loop
    vertex 40.66339006125374 130.08724738794763 7.000000000000007
    vertex 42.16339006125539 130.08724738396552 6.500000000000006
    vertex 41.66339006125539 130.08724738529287 7.000000000000007
  endloop
endfacet
facet normal 0.0 0.0 -1.0
  outer loop
    vertex 40.66339006125374 130.08724738794763 6.000000000000007
    vertex 41.66339006921964 133.08724738529176 6.000000000000007
    vertex 41.66339006125539 130.08724738529287 6.000000000000007
  endloop
endfacet
facet normal 0.0 0.0 -1.0
  outer loop
    vertex 41.66339006921964 133.08724738529176 6.000000000000007
    vertex 40.66339006125374 130.08724738794763 6.000000000000007
    vertex 40.66339006921799 133.08724738794652 6.000000000000007
  endloop
endfacet
facet normal 0.0 0.0 -1.0
  outer loop
    vertex 46.66339006126885 157.58724738794703 1.0000000000000115
    vertex 44.66339006126885 156.58724738794703 1.0000000000000115
    vertex 44.66339006126885 157.58724738794703 1.0000000000000115
  endloop
endfacet
facet normal 0.0 0.0 -1.0
  outer loop
    vertex 44.66339006126885 156.58724738794703 1.0000000000000115
    vertex 46.66339006126885 157.58724738794703 1.0000000000000115
    vertex 46.66339006126885 156.58724738794703 1.0000000000000115
  endloop
endfacet
facet normal 0.0 0.0 -1.0
  outer loop
    vertex 46.663390061254546 132.58724738794706 1.0000000000000115
    vertex 44.663390061254546 131.58724738794706 1.0000000000000115
    vertex 44.663390061254546 132.58724738794706 1.0000000000000115
  endloop
endfacet
facet normal 0.0 0.0 -1.0
  outer loop
    vertex 44.663390061254546 131.58724738794706 1.0000000000000115
    vertex 46.663390061254546 132.58724738794706 1.0000000000000115
    vertex 46.663390061254546 131.58724738794706 1.0000000000000115
  endloop
endfacet
facet normal 0.0 0.0 1.0
  outer loop
    vertex 46.663390061254546 131.58724738794706 3.0000000000000115
    vertex 44.663390061254546 132.58724738794706 3.0000000000000115
    vertex 44.663390061254546 131.58724738794706 3.0000000000000115
  endloop
endfacet
facet normal 0.0 0.0 1.0
  outer loop
    vertex 44.663390061254546 132.58724738794706 3.0000000000000115
    vertex 46.663390061254546 131.58724738794706 3.0000000000000115
    vertex 46.663390061254546 132.58724738794706 3.0000000000000115
  endloop
endfacet
facet normal -1.0 0.0 0.0
  outer loop
    vertex 44.663390061254546 132.58724738794706 3.0000000000000115
    vertex 44.663390061254546 131.58724738794706 1.0000000000000115
    vertex 44.663390061254546 131.58724738794706 3.0000000000000115
  endloop
endfacet
facet normal -1.0 0.0 0.0
  outer loop
    vertex 44.663390061254546 131.58724738794706 1.0000000000000115
    vertex 44.663390061254546 132.58724738794706 3.0000000000000115
    vertex 44.663390061254546 132.58724738794706 1.0000000000000115
  endloop
endfacet
facet normal 0.0 1.0 0.0
  outer loop
    vertex 44.663390061254546 132.58724738794706 3.0000000000000115
    vertex 46.663390061254546 132.58724738794706 1.0000000000000115
    vertex 44.663390061254546 132.58724738794706 1.0000000000000115
  endloop
endfacet
facet normal 0.0 1.0 0.0
  outer loop
    vertex 46.663390061254546 132.58724738794706 1.0000000000000115
    vertex 44.663390061254546 132.58724738794706 3.0000000000000115
    vertex 46.663390061254546 132.58724738794706 3.0000000000000115
  endloop
endfacet
facet normal 1.0 0.0 0.0
  outer loop
    vertex 46.663390061254546 132.58724738794706 1.0000000000000115
    vertex 46.663390061254546 131.58724738794706 3.0000000000000115
    vertex 46.663390061254546 131.58724738794706 1.0000000000000115
  endloop
endfacet
facet normal 1.0 0.0 0.0
  outer loop
    vertex 46.663390061254546 131.58724738794706 3.0000000000000115
    vertex 46.663390061254546 132.58724738794706 1.0000000000000115
    vertex 46.663390061254546 132.58724738794706 3.0000000000000115
  endloop
endfacet
facet normal -0.0 -1.0 -0.0
  outer loop
    vertex 46.663390061254546 131.58724738794706 3.0000000000000115
    vertex 44.663390061254546 131.58724738794706 1.0000000000000115
    vertex 46.663390061254546 131.58724738794706 1.0000000000000115
  endloop
endfacet
facet normal -0.0 -1.0 -0.0
  outer loop
    vertex 44.663390061254546 131.58724738794706 1.0000000000000115
    vertex 46.663390061254546 131.58724738794706 3.0000000000000115
    vertex 44.663390061254546 131.58724738794706 3.0000000000000115
  endloop
endfacet
facet normal 0.0 0.0 1.0
  outer loop
    vertex 46.66339006126885 156.58724738794703 3.0000000000000115
    vertex 44.66339006126885 157.58724738794703 3.0000000000000115
    vertex 44.66339006126885 156.58724738794703 3.0000000000000115
  endloop
endfacet
facet normal 0.0 0.0 1.0
  outer loop
    vertex 44.66339006126885 157.58724738794703 3.0000000000000115
    vertex 46.66339006126885 156.58724738794703 3.0000000000000115
    vertex 46.66339006126885 157.58724738794703 3.0000000000000115
  endloop
endfacet
facet normal 0.0 1.0 0.0
  outer loop
    vertex 44.66339006126885 157.58724738794703 3.0000000000000115
    vertex 46.66339006126885 157.58724738794703 1.0000000000000115
    vertex 44.66339006126885 157.58724738794703 1.0000000000000115
  endloop
endfacet
facet normal 0.0 1.0 0.0
  outer loop
    vertex 46.66339006126885 157.58724738794703 1.0000000000000115
    vertex 44.66339006126885 157.58724738794703 3.0000000000000115
    vertex 46.66339006126885 157.58724738794703 3.0000000000000115
  endloop
endfacet
facet normal 1.0 0.0 0.0
  outer loop
    vertex 46.66339006126885 157.58724738794703 1.0000000000000115
    vertex 46.66339006126885 156.58724738794703 3.0000000000000115
    vertex 46.66339006126885 156.58724738794703 1.0000000000000115
  endloop
endfacet
facet normal 1.0 0.0 0.0
  outer loop
    vertex 46.66339006126885 156.58724738794703 3.0000000000000115
    vertex 46.66339006126885 157.58724738794703 1.0000000000000115
    vertex 46.66339006126885 157.58724738794703 3.0000000000000115
  endloop
endfacet
facet normal -0.0 -1.0 -0.0
  outer loop
    vertex 46.66339006126885 156.58724738794703 3.0000000000000115
    vertex 44.66339006126885 156.58724738794703 1.0000000000000115
    vertex 46.66339006126885 156.58724738794703 1.0000000000000115
  endloop
endfacet
facet normal -0.0 -1.0 -0.0
  outer loop
    vertex 44.66339006126885 156.58724738794703 1.0000000000000115
    vertex 46.66339006126885 156.58724738794703 3.0000000000000115
    vertex 44.66339006126885 156.58724738794703 3.0000000000000115
  endloop
endfacet
facet normal -1.0 0.0 0.0
  outer loop
    vertex 44.66339006126885 157.58724738794703 3.0000000000000115
    vertex 44.66339006126885 156.58724738794703 1.0000000000000115
    vertex 44.66339006126885 156.58724738794703 3.0000000000000115
  endloop
endfacet
facet normal -1.0 0.0 0.0
  outer loop
    vertex 44.66339006126885 156.58724738794703 1.0000000000000115
    vertex 44.66339006126885 157.58724738794703 3.0000000000000115
    vertex 44.66339006126885 157.58724738794703 1.0000000000000115
  endloop
endfacet
facet normal 0.0 0.0 1.0
  outer loop
    vertex 40.66339006132886 110.08724738794758 2.5000000000000195
    vertex 41.663390061325416 156.08724738794703 2.5000000000000195
    vertex 40.66339006131899 156.08724738794703 2.5000000000000195
  endloop
endfacet
facet normal 0.0 0.0 1.0
  outer loop
    vertex 41.663390061325416 156.08724738794703 2.5000000000000195
    vertex 40.66339006132886 110.08724738794758 2.5000000000000195
    vertex 41.66339006132881 111.08724738794758 2.5000000000000195
  endloop
endfacet
facet normal 0.0 0.0 1.0
  outer loop
    vertex 41.66339006132881 111.08724738794758 2.5000000000000195
    vertex 40.66339006132886 110.08724738794758 2.5000000000000195
    vertex 108.66339006132884 110.08724738794758 2.5000000000000195
  endloop
endfacet
facet normal 0.0 0.0 1.0
  outer loop
    vertex 41.66339006132881 111.08724738794758 2.5000000000000195
    vertex 108.66339006132884 110.08724738794758 2.5000000000000195
    vertex 107.66339006132884 111.08724738794758 2.5000000000000195
  endloop
endfacet
facet normal 0.0 0.0 1.0
  outer loop
    vertex 107.66339006132884 111.08724738794758 2.5000000000000195
    vertex 108.66339006132884 110.08724738794758 2.5000000000000195
    vertex 107.66339006132884 177.08724738794757 2.5000000000000195
  endloop
endfacet
facet normal 0.0 0.0 1.0
  outer loop
    vertex 41.663390061325416 156.08724738794703 2.5000000000000195
    vertex 40.66339006132886 178.08724738794757 2.5000000000000195
    vertex 40.66339006131899 156.08724738794703 2.5000000000000195
  endloop
endfacet
facet normal 0.0 0.0 1.0
  outer loop
    vertex 40.66339006132886 178.08724738794757 2.5000000000000195
    vertex 41.663390061325416 156.08724738794703 2.5000000000000195
    vertex 41.66339006132881 177.08724738794757 2.5000000000000195
  endloop
endfacet
facet normal 0.0 0.0 1.0
  outer loop
    vertex 40.66339006132886 178.08724738794757 2.5000000000000195
    vertex 41.66339006132881 177.08724738794757 2.5000000000000195
    vertex 108.66339006132884 178.08724738794757 2.5000000000000195
  endloop
endfacet
facet normal 0.0 0.0 1.0
  outer loop
    vertex 108.66339006132884 178.08724738794757 2.5000000000000195
    vertex 41.66339006132881 177.08724738794757 2.5000000000000195
    vertex 107.66339006132884 177.08724738794757 2.5000000000000195
  endloop
endfacet
facet normal 0.0 0.0 1.0
  outer loop
    vertex 108.66339006132884 178.08724738794757 2.5000000000000195
    vertex 107.66339006132884 177.08724738794757 2.5000000000000195
    vertex 108.66339006132884 110.08724738794758 2.5000000000000195
  endloop
endfacet
facet normal 0.0 1.0 0.0
  outer loop
    vertex 41.66339006132881 111.08724738794758 2.5000000000000195
    vertex 107.66339006132884 111.08724738794758 1.0000000000000224
    vertex 41.66339006132881 111.08724738794758 1.0000000000000224
  endloop
endfacet
facet normal 0.0 1.0 0.0
  outer loop
    vertex 107.66339006132884 111.08724738794758 1.0000000000000224
    vertex 41.66339006132881 111.08724738794758 2.5000000000000195
    vertex 107.66339006132884 111.08724738794758 2.5000000000000195
  endloop
endfacet
facet normal -1.0 0.0 0.0
  outer loop
    vertex 107.66339006132884 177.08724738794757 2.5000000000000195
    vertex 107.66339006132884 111.08724738794758 1.0000000000000224
    vertex 107.66339006132884 111.08724738794758 2.5000000000000195
  endloop
endfacet
facet normal -1.0 0.0 0.0
  outer loop
    vertex 107.66339006132884 111.08724738794758 1.0000000000000224
    vertex 107.66339006132884 177.08724738794757 2.5000000000000195
    vertex 107.66339006132884 177.08724738794757 1.0000000000000224
  endloop
endfacet
facet normal 0.0 -1.0 0.0
  outer loop
    vertex 107.66339006132884 177.08724738794757 2.5000000000000195
    vertex 41.66339006132881 177.08724738794757 1.0000000000000224
    vertex 107.66339006132884 177.08724738794757 1.0000000000000224
  endloop
endfacet
facet normal 0.0 -1.0 0.0
  outer loop
    vertex 41.66339006132881 177.08724738794757 1.0000000000000224
    vertex 107.66339006132884 177.08724738794757 2.5000000000000195
    vertex 41.66339006132881 177.08724738794757 2.5000000000000195
  endloop
endfacet
facet normal -1.0 4.4837467072510465e-13 -3.330871919625691e-28
  outer loop
    vertex 40.66339006132886 178.08724738794757 2.5000000000000195
    vertex 40.66339006131899 156.08724738794703 1.000000000000026
    vertex 40.66339006131899 156.08724738794703 2.5000000000000195
  endloop
endfacet
facet normal -1.0 4.4837467072510465e-13 -3.330871919625691e-28
  outer loop
    vertex 40.66339006131899 156.08724738794703 1.000000000000026
    vertex 40.66339006132886 178.08724738794757 2.5000000000000195
    vertex 40.66339006132886 178.08724738794757 1.0000000000000224
  endloop
endfacet
facet normal 1.0 7.54497698886158e-14 8.552062925431817e-29
  outer loop
    vertex 41.663390061325416 156.08724738794703 1.000000000000026
    vertex 41.66339006132881 111.08724738794758 2.5000000000000195
    vertex 41.66339006132881 111.08724738794758 1.0000000000000224
  endloop
endfacet
facet normal 1.0 7.54497698886158e-14 8.552062925431817e-29
  outer loop
    vertex 41.66339006132881 111.08724738794758 2.5000000000000195
    vertex 41.663390061325416 156.08724738794703 1.000000000000026
    vertex 41.663390061325416 156.08724738794703 2.5000000000000195
  endloop
endfacet
facet normal 1.0 0.0 0.0
  outer loop
    vertex 108.66339006132884 178.08724738794757 1.0000000000000224
    vertex 108.66339006132884 110.08724738794758 2.5000000000000195
    vertex 108.66339006132884 110.08724738794758 1.0000000000000224
  endloop
endfacet
facet normal 1.0 0.0 0.0
  outer loop
    vertex 108.66339006132884 110.08724738794758 2.5000000000000195
    vertex 108.66339006132884 178.08724738794757 1.0000000000000224
    vertex 108.66339006132884 178.08724738794757 2.5000000000000195
  endloop
endfacet
facet normal 0.0 -1.0 0.0
  outer loop
    vertex 108.66339006132884 110.08724738794758 2.5000000000000195
    vertex 40.66339006132886 110.08724738794758 1.0000000000000224
    vertex 108.66339006132884 110.08724738794758 1.0000000000000224
  endloop
endfacet
facet normal 0.0 -1.0 0.0
  outer loop
    vertex 40.66339006132886 110.08724738794758 1.0000000000000224
    vertex 108.66339006132884 110.08724738794758 2.5000000000000195
    vertex 40.66339006132886 110.08724738794758 2.5000000000000195
  endloop
endfacet
facet normal 0.0 1.0 0.0
  outer loop
    vertex 40.66339006132886 178.08724738794757 2.5000000000000195
    vertex 108.66339006132884 178.08724738794757 1.0000000000000224
    vertex 40.66339006132886 178.08724738794757 1.0000000000000224
  endloop
endfacet
facet normal 0.0 1.0 0.0
  outer loop
    vertex 108.66339006132884 178.08724738794757 1.0000000000000224
    vertex 40.66339006132886 178.08724738794757 2.5000000000000195
    vertex 108.66339006132884 178.08724738794757 2.5000000000000195
  endloop
endfacet
facet normal -1.0 -2.1444005991201443e-13 -2.3611919922697933e-28
  outer loop
    vertex 40.66339006131899 156.08724738794703 2.5000000000000195
    vertex 40.66339006132886 110.08724738794758 1.0000000000000224
    vertex 40.66339006132886 110.08724738794758 2.5000000000000195
  endloop
endfacet
facet normal -1.0 -2.1444005991201443e-13 -2.3611919922697933e-28
  outer loop
    vertex 40.66339006132886 110.08724738794758 1.0000000000000224
    vertex 40.66339006131899 156.08724738794703 2.5000000000000195
    vertex 40.66339006131899 156.08724738794703 1.000000000000026
  endloop
endfacet
facet normal 1.0 -1.6167807833274189e-13 5.871382427462394e-29
  outer loop
    vertex 41.66339006132881 177.08724738794757 1.0000000000000224
    vertex 41.663390061325416 156.08724738794703 2.5000000000000195
    vertex 41.663390061325416 156.08724738794703 1.000000000000026
  endloop
endfacet
facet normal 1.0 -1.6167807833274189e-13 5.871382427462394e-29
  outer loop
    vertex 41.663390061325416 156.08724738794703 2.5000000000000195
    vertex 41.66339006132881 177.08724738794757 1.0000000000000224
    vertex 41.66339006132881 177.08724738794757 2.5000000000000195
  endloop
endfacet
facet normal -1.6927764902303577e-17 5.974505259634548e-18 -1.0
  outer loop
    vertex 40.66339006132886 178.08724738794757 1.0000000000000224
    vertex 40.66339006132886 110.08724738794758 1.0000000000000224
    vertex 40.66339006131899 156.08724738794703 1.000000000000026
  endloop
endfacet
facet normal -1.6927764902303577e-17 5.974505259634548e-18 -1.0
  outer loop
    vertex 40.66339006132886 110.08724738794758 1.0000000000000224
    vertex 40.66339006132886 178.08724738794757 1.0000000000000224
    vertex 41.66339006132881 177.08724738794757 1.0000000000000224
  endloop
endfacet
facet normal -1.6927764902303577e-17 5.974505259634548e-18 -1.0
  outer loop
    vertex 41.66339006132881 177.08724738794757 1.0000000000000224
    vertex 40.66339006132886 178.08724738794757 1.0000000000000224
    vertex 108.66339006132884 178.08724738794757 1.0000000000000224
  endloop
endfacet
facet normal -1.6927764902303577e-17 5.974505259634548e-18 -1.0
  outer loop
    vertex 40.66339006132886 110.08724738794758 1.0000000000000224
    vertex 41.66339006132881 177.08724738794757 1.0000000000000224
    vertex 41.663390061325416 156.08724738794703 1.000000000000026
  endloop
endfacet
facet normal -1.6927764902303577e-17 5.974505259634548e-18 -1.0
  outer loop
    vertex 41.66339006132881 177.08724738794757 1.0000000000000224
    vertex 108.66339006132884 178.08724738794757 1.0000000000000224
    vertex 107.66339006132884 177.08724738794757 1.0000000000000224
  endloop
endfacet
facet normal -1.6927764902303577e-17 5.974505259634548e-18 -1.0
  outer loop
    vertex 107.66339006132884 177.08724738794757 1.0000000000000224
    vertex 108.66339006132884 178.08724738794757 1.0000000000000224
    vertex 107.66339006132884 111.08724738794758 1.0000000000000224
  endloop
endfacet
facet normal -1.6927764902303577e-17 5.974505259634548e-18 -1.0
  outer loop
    vertex 40.66339006132886 110.08724738794758 1.0000000000000224
    vertex 41.66339006132881 111.08724738794758 1.0000000000000224
    vertex 108.66339006132884 110.08724738794758 1.0000000000000224
  endloop
endfacet
facet normal -1.6927764902303577e-17 5.974505259634548e-18 -1.0
  outer loop
    vertex 41.66339006132881 111.08724738794758 1.0000000000000224
    vertex 40.66339006132886 110.08724738794758 1.0000000000000224
    vertex 41.663390061325416 156.08724738794703 1.000000000000026
  endloop
endfacet
facet normal -1.6927764902303577e-17 5.974505259634548e-18 -1.0
  outer loop
    vertex 108.66339006132884 110.08724738794758 1.0000000000000224
    vertex 41.66339006132881 111.08724738794758 1.0000000000000224
    vertex 107.66339006132884 111.08724738794758 1.0000000000000224
  endloop
endfacet
facet normal -1.6927764902303577e-17 5.974505259634548e-18 -1.0
  outer loop
    vertex 108.66339006132884 110.08724738794758 1.0000000000000224
    vertex 107.66339006132884 111.08724738794758 1.0000000000000224
    vertex 108.66339006132884 178.08724738794757 1.0000000000000224
  endloop
endfacet
endsolid esp32speakerbox
